/* XPM */
static char * symphytum_xpm[] = {
"32 32 310 2",
"  	c None",
". 	c #C3C3C3",
"+ 	c #E3E3E3",
"@ 	c #F6F6F6",
"# 	c #F7F7F7",
"$ 	c #F8F8F8",
"% 	c #FAFAFA",
"& 	c #FCFCFC",
"* 	c #F2F2F2",
"= 	c #ECECEC",
"- 	c #E4E4E4",
"; 	c #DCDCDC",
"> 	c #D4D4D4",
", 	c #CBCBCB",
"' 	c #C1C1C1",
") 	c #B4B4B4",
"! 	c #A7A7A7",
"~ 	c #999999",
"{ 	c #8C8C8C",
"] 	c #828282",
"^ 	c #747474",
"/ 	c #B3B3B3",
"( 	c #BDBDBD",
"_ 	c #C2C2C2",
": 	c #D6D6D6",
"< 	c #E5E5E5",
"[ 	c #F9F9F9",
"} 	c #F4F4F4",
"| 	c #EFEFEF",
"1 	c #E9E9E9",
"2 	c #E1E1E1",
"3 	c #DBDBDB",
"4 	c #D1D1D1",
"5 	c #C8C8C8",
"6 	c #BEBEBE",
"7 	c #B1B1B1",
"8 	c #A4A4A4",
"9 	c #979797",
"0 	c #B0B0B0",
"a 	c #BBBBBB",
"b 	c #CECECE",
"c 	c #D3D3D3",
"d 	c #D8D8D8",
"e 	c #EAEAEA",
"f 	c #EEEEEE",
"g 	c #E8E8E8",
"h 	c #E2E2E2",
"i 	c #B6B6B6",
"j 	c #A9A9A9",
"k 	c #9D9D9D",
"l 	c #949494",
"m 	c #8A8A8A",
"n 	c #7F7F7F",
"o 	c #ADADAD",
"p 	c #C9C9C9",
"q 	c #D2D2D2",
"r 	c #D5D5D5",
"s 	c #D7D7D7",
"t 	c #CDCDCD",
"u 	c #C4C4C4",
"v 	c #BABABA",
"w 	c #A3A3A3",
"x 	c #9A9A9A",
"y 	c #909090",
"z 	c #868686",
"A 	c #7C7C7C",
"B 	c #727272",
"C 	c #AFAFAF",
"D 	c #B7B7B7",
"E 	c #C7C7C7",
"F 	c #CCCCCC",
"G 	c #CACACA",
"H 	c #C6C6C6",
"I 	c #B9B9B9",
"J 	c #9E9E9E",
"K 	c #8B8B8B",
"L 	c #818181",
"M 	c #787878",
"N 	c #6E6E6E",
"O 	c #606060",
"P 	c #919191",
"Q 	c #A6A6A6",
"R 	c #AEAEAE",
"S 	c #BFBFBF",
"T 	c #BCBCBC",
"U 	c #B8B8B8",
"V 	c #ACACAC",
"W 	c #A5A5A5",
"X 	c #9C9C9C",
"Y 	c #797979",
"Z 	c #6F6F6F",
"` 	c #666666",
" .	c #585858",
"..	c #DEDEDE",
"+.	c #E6E6E6",
"@.	c #E7E7E7",
"#.	c #E0E0E0",
"$.	c #CFCFCF",
"%.	c #B2B2B2",
"&.	c #9F9F9F",
"*.	c #D9D9D9",
"=.	c #DFDFDF",
"-.	c #C5C5C5",
";.	c #C0C0C0",
">.	c #ABABAB",
",.	c #DADAD9",
"'.	c #DCDCDB",
").	c #DEDEDD",
"!.	c #E0DFDE",
"~.	c #E1E0DF",
"{.	c #DEDFDE",
"].	c #DCDDDC",
"^.	c #D6D7D6",
"/.	c #D2D3D2",
"(.	c #CFCFCE",
"_.	c #A8A8A8",
":.	c #9C9C9E",
"<.	c #3D3C4D",
"[.	c #454253",
"}.	c #5E6C81",
"|.	c #93B6D0",
"1.	c #9EBACF",
"2.	c #9DB9D0",
"3.	c #88AFCC",
"4.	c #68A2CA",
"5.	c #59647B",
"6.	c #4C4859",
"7.	c #4D495A",
"8.	c #4E4A5B",
"9.	c #4E4A5A",
"0.	c #4A4859",
"a.	c #777883",
"b.	c #7C7C82",
"c.	c #616080",
"d.	c #4B86B8",
"e.	c #63B7F1",
"f.	c #C1E3FB",
"g.	c #C9E9FD",
"h.	c #CDEBFE",
"i.	c #85CAEF",
"j.	c #6BC2EF",
"k.	c #65B3EB",
"l.	c #4382BA",
"m.	c #4181BB",
"n.	c #3F7FB9",
"o.	c #3E7CB7",
"p.	c #3C7AB6",
"q.	c #3B78B4",
"r.	c #3A77B2",
"s.	c #3976B2",
"t.	c #3776B2",
"u.	c #5D658B",
"v.	c #6B6976",
"w.	c #A2A2A2",
"x.	c #848389",
"y.	c #7EA9D5",
"z.	c #7FC4F4",
"A.	c #86CEFD",
"B.	c #81CDFD",
"C.	c #8AD2FD",
"D.	c #92D5FD",
"E.	c #A5DFFF",
"F.	c #ADE2FE",
"G.	c #ADE2FD",
"H.	c #B4E4FC",
"I.	c #B6E4FC",
"J.	c #B7E5FC",
"K.	c #B2E3FB",
"L.	c #AEE0FB",
"M.	c #A8DCFB",
"N.	c #A1D8FA",
"O.	c #9AD4F8",
"P.	c #92CFF7",
"Q.	c #88C9F5",
"R.	c #6EA8DB",
"S.	c #807B85",
"T.	c #969498",
"U.	c #DEE3EB",
"V.	c #FFFAF3",
"W.	c #FFF9F3",
"X.	c #FFF8F2",
"Y.	c #FFF8F3",
"Z.	c #FFF7F3",
"`.	c #EAEDF1",
" +	c #CAE9FB",
".+	c #D0EDFD",
"++	c #CCECFD",
"@+	c #C9EAFD",
"#+	c #C4E7FD",
"$+	c #BCE4FD",
"%+	c #B5DDF8",
"&+	c #FFFBF3",
"*+	c #E5E8ED",
"=+	c #8F8B94",
"-+	c #9B9B9B",
";+	c #A9A7A7",
">+	c #98CCF3",
",+	c #70BFF8",
"'+	c #7CC8FC",
")+	c #86CEFF",
"!+	c #91D3FE",
"~+	c #9AD6FD",
"{+	c #A0D8FD",
"]+	c #A5DBFC",
"^+	c #A9DCFB",
"/+	c #AADCFB",
"(+	c #B3E1FC",
"_+	c #BFE9FF",
":+	c #BCE8FF",
"<+	c #B8E6FF",
"[+	c #B2E3FF",
"}+	c #ABDFFF",
"|+	c #A2DBFF",
"1+	c #99D7FF",
"2+	c #7BC5FA",
"3+	c #7BC0F3",
"4+	c #A59FA2",
"5+	c #969696",
"6+	c #B9B8B8",
"7+	c #77C0F7",
"8+	c #67BAF7",
"9+	c #73C4FD",
"0+	c #7FCCFF",
"a+	c #8BD2FF",
"b+	c #96D7FF",
"c+	c #9FDCFF",
"d+	c #A7DFFF",
"e+	c #AAE1FF",
"f+	c #ADE2FF",
"g+	c #ADE3FF",
"h+	c #ABE2FF",
"i+	c #A7E0FF",
"j+	c #A2DEFF",
"k+	c #9BDBFF",
"l+	c #95D7FF",
"m+	c #8CD2FF",
"n+	c #82CDFF",
"o+	c #7AC6FE",
"p+	c #66BAF8",
"q+	c #B0ACB0",
"r+	c #939393",
"s+	c #CEC9C6",
"t+	c #D8D3CF",
"u+	c #DFDBD7",
"v+	c #E8E3E0",
"w+	c #EFEAE8",
"x+	c #F6F3F0",
"y+	c #FEFAF8",
"z+	c #FFFEFC",
"A+	c #FCF8F6",
"B+	c #F5F2F0",
"C+	c #EEEBE9",
"D+	c #E6E3E1",
"E+	c #DCD8D6",
"F+	c #D1CDCB",
"G+	c #C8C4C1",
"H+	c #BBB7B4",
"I+	c #B0ABA8",
"J+	c #A49F9C",
"K+	c #989390",
"L+	c #8D8884",
"M+	c #7A7A7A",
"N+	c #8E8E8E",
"O+	c #A1A1A1",
"P+	c #F0F0F0",
"Q+	c #F1F1F1",
"R+	c #F3F3F3",
"S+	c #888888",
"T+	c #EBEBEB",
"U+	c #848484",
"V+	c #858585",
"W+	c #959595",
"X+	c #DDDDDD",
"Y+	c #DADADA",
"Z+	c #989898",
"`+	c #8F8F8F",
" @	c #D0D0D0",
".@	c #B5B5B5",
"+@	c #7B7B7B",
"@@	c #929292",
"#@	c #767676",
"$@	c #777777",
"%@	c #838383",
"&@	c #898989",
"*@	c #707070",
"=@	c #717171",
"-@	c #7D7D7D",
";@	c #878787",
">@	c #808080",
",@	c #6B6B6B",
"'@	c #6C6C6C",
")@	c #A0A0A0",
"!@	c #4D4D4D",
"~@	c #4F4F4F",
"{@	c #4E4E4E",
"]@	c #656565",
"^@	c #676767",
"/@	c #616161",
"(@	c #8D8D8D",
"_@	c #4A4A4A",
":@	c #7E7E7E",
"<@	c #6D6D6D",
"[@	c #626262",
"}@	c #646464",
"|@	c #696969",
"1@	c #6A6A6A",
"2@	c #636363",
"3@	c #5E5E5E",
"4@	c #545454",
"5@	c #515151",
"        . + @ @ # $ % & & & # * = - ; > , ' ) ! ~ { ] ^         ",
"        / ( _ : < * % [ [ # } | 1 2 3 4 5 6 7 8 9 { ] ^         ",
"        0 a _ 5 b c d + e | f g h 3 > , _ i j k l m n ^         ",
"        o i ( . p b q > : r r s : > t u v o w x y z A B         ",
"        ! C D ( . E , t b b F G H ' 6 I C ! J l K L M N O       ",
"      P J Q R ) I ( ' _ . . _ S T U / V W X l K ] Y Z `  .      ",
"      . E F 4 : 3 ..2 - +.@.@.+.+ #.3 > $.G u 6 I %.V 8 &.      ",
"      t G b q : *.; ..#.h h #.=.; *.: q b p -.;.( U 7 >.>.      ",
"      G E F c s ,.'.).!.~.~.#.{.].,.^./.(.G H _ ( U 0 _.j       ",
"      E u :.<.[.}.|.1.2.3.4.5.6.6.6.7.7.7.8.8.9.8.0.a.W W       ",
"      . ;.b.c.d.e.f.g.h.i.j.k.l.m.n.o.p.q.r.s.s.t.u.v.w.w.      ",
"      S T x.y.z.A.B.C.D.E.F.G.H.I.J.K.L.M.N.O.P.Q.R.S.J &.      ",
"      I U T.U.V.W.X.Y.Y.Y.Z.Z.Z.`. +.+++@+#+$+%+&+*+=+x -+      ",
"      ) / ;+>+,+'+)+!+~+{+]+^+/+(+_+:+<+[+}+|+1+2+3+4+5+9       ",
"      R R 6+7+8+9+0+a+b+c+d+e+f+g+h+i+j+k+l+m+n+o+p+q+r+r+      ",
"      _.W ;.s+t+u+v+w+x+y+z+A+B+C+D+E+F+G+H+I+J+K+L+M+z N+      ",
"      O+w.4 = | P+Q+R+} R+R+Q+f e < =.*.c F u a 7 ! -+S+m       ",
"      x X ' . d 1 T+= = = = 1 @.h ..d 4 , u T %.&.J N+U+V+      ",
"      W+9 ( ;.-.G ; - - + + 2 X+Y+r $.p _ a / >.Z+l W+n L       ",
"      `+y U a ;.-.5 t d 3 *.s >  @, -.;.a .@o Q &.Z+y M++@      ",
"      m m 7 i v 6 _ -.H , $.b , E u ;.v .@C _.O+x @@K #@$@      ",
"      %@U+>.C ) I T 6 ;._ P >._._._.&@D R _.w.-+l { z *@=@      ",
"      -@-@8 ! o 7 ) U I T ;@1 h h < @@0 ! O+-+l N+;@>@,@'@      ",
"      $@$@X )@8 j V R 0 / y !@~@~@{@+@W &.x l N+;@L M+]@^@      ",
"      *@B l Z+X )@w Q _.j _ Q j j _.S ~ 9 @@{ ;@L M+^ O /@      ",
"          (@y l Z+x k &.)@J -+x Z+W+r+r+N+K V+>@M+^ N _@        ",
"          %@S+{ `+@@r+W+5+5+5+W+r+P N+K z ] :@M B <@^@          ",
"          A n %@z S+m { (@(@(@{ K S+V+] :@M+#@*@,@]@/@          ",
"          =@[@}@]@` |@1@,@,@1@|@^@]@2@/@3@ .4@5@{@_@5@          ",
"                                                                ",
"                                                                ",
"                                                                "};
