/* XPM */
static char * symphytum_xpm[] = {
"32 32 828 2",
"  	c None",
". 	c #AD6F32",
"+ 	c #AA6B2E",
"@ 	c #AC6E2F",
"# 	c #AE7130",
"$ 	c #B07331",
"% 	c #B27631",
"& 	c #B37732",
"* 	c #B57933",
"= 	c #B57B33",
"- 	c #B67C33",
"; 	c #B67D33",
"> 	c #B77D33",
", 	c #B57A32",
"' 	c #B47932",
") 	c #B27732",
"! 	c #B17531",
"~ 	c #B07330",
"{ 	c #AE7030",
"] 	c #AC6D2F",
"^ 	c #B37735",
"/ 	c #C4873C",
"( 	c #CE8538",
"_ 	c #D2893A",
": 	c #D48C3B",
"< 	c #D58E3B",
"[ 	c #D5913B",
"} 	c #D5933C",
"| 	c #D6963D",
"1 	c #D6973D",
"2 	c #D6993E",
"3 	c #D69A3D",
"4 	c #D69A3F",
"5 	c #D69A3E",
"6 	c #D5983E",
"7 	c #D5973E",
"8 	c #D4953D",
"9 	c #D4933D",
"0 	c #D4903C",
"a 	c #D38E3B",
"b 	c #D28A3A",
"c 	c #D08638",
"d 	c #C88B3E",
"e 	c #AE7A3A",
"f 	c #CC8337",
"g 	c #CF8638",
"h 	c #D28938",
"i 	c #D68C3A",
"j 	c #D88F3B",
"k 	c #D9913B",
"l 	c #D9933C",
"m 	c #D9943D",
"n 	c #D9973D",
"o 	c #D9983E",
"p 	c #D9993E",
"q 	c #D9973E",
"r 	c #D9953D",
"s 	c #D8923C",
"t 	c #D8903B",
"u 	c #D78D3B",
"v 	c #D58B3A",
"w 	c #D18739",
"x 	c #CF8538",
"y 	c #B17B39",
"z 	c #906935",
"A 	c #D28A39",
"B 	c #CF8738",
"C 	c #D08939",
"D 	c #D18939",
"E 	c #D38B39",
"F 	c #D78E3A",
"G 	c #D98F3A",
"H 	c #DB923B",
"I 	c #DB933B",
"J 	c #DB953C",
"K 	c #DC963D",
"L 	c #DC973D",
"M 	c #DC983D",
"N 	c #DC973C",
"O 	c #DB963C",
"P 	c #DB943C",
"Q 	c #DA933B",
"R 	c #DA913C",
"S 	c #D88E3B",
"T 	c #D58C3A",
"U 	c #D38A39",
"V 	c #CD8437",
"W 	c #D0883A",
"X 	c #936935",
"Y 	c #6A502E",
"Z 	c #D9923D",
"` 	c #D08938",
" .	c #D38A38",
"..	c #D48C39",
"+.	c #D58D3A",
"@.	c #D68E3A",
"#.	c #D88F3A",
"$.	c #DA913A",
"%.	c #DC923A",
"&.	c #DD933B",
"*.	c #DD943B",
"=.	c #DC933B",
"-.	c #DB913B",
";.	c #D9903A",
">.	c #D78E39",
",.	c #D58C39",
"'.	c #D18938",
").	c #D08838",
"!.	c #CE8637",
"~.	c #D78F3D",
"{.	c #74552F",
"].	c #DAA652",
"^.	c #DEA952",
"/.	c #DFAA55",
"(.	c #E0AC58",
"_.	c #E1AE59",
":.	c #E2AF5A",
"<.	c #E3B05C",
"[.	c #E3B15D",
"}.	c #E4B25E",
"|.	c #E5B35F",
"1.	c #E5B360",
"2.	c #E6B561",
"3.	c #E6B562",
"4.	c #E7B562",
"5.	c #E7B561",
"6.	c #E7B460",
"7.	c #E6B35F",
"8.	c #E5B25D",
"9.	c #E4B05C",
"0.	c #E3AF5A",
"a.	c #E2AD58",
"b.	c #E1AC57",
"c.	c #E0AC55",
"d.	c #DFA955",
"e.	c #DFA852",
"f.	c #DEA64F",
"g.	c #DDA54E",
"h.	c #DCA34C",
"i.	c #DAA24A",
"j.	c #DA9F49",
"k.	c #8F5A30",
"l.	c #E2A764",
"m.	c #E3AC69",
"n.	c #E5B26F",
"o.	c #E7BA76",
"p.	c #E9C07E",
"q.	c #EBC687",
"r.	c #EDCB91",
"s.	c #EFD09C",
"t.	c #F0D5A6",
"u.	c #F1DAB0",
"v.	c #F3DDB6",
"w.	c #F3DDBA",
"x.	c #F3DEBC",
"y.	c #F3DEBF",
"z.	c #F4DFC0",
"A.	c #F3DFC0",
"B.	c #F3DFBF",
"C.	c #F4DEBE",
"D.	c #F3DEBB",
"E.	c #F3DDB8",
"F.	c #F2D8B0",
"G.	c #F0D4A6",
"H.	c #EDCE9C",
"I.	c #ECC991",
"J.	c #EBC487",
"K.	c #E9BD7D",
"L.	c #E7B573",
"M.	c #E5AE6A",
"N.	c #E4A863",
"O.	c #E4A65F",
"P.	c #91653E",
"Q.	c #C97F35",
"R.	c #9C672F",
"S.	c #DF973D",
"T.	c #E4A94D",
"U.	c #E5AD50",
"V.	c #E6B252",
"W.	c #E6B755",
"X.	c #E7BA5C",
"Y.	c #E8BD64",
"Z.	c #E8BD6B",
"`.	c #E9BE71",
" +	c #E9BF76",
".+	c #E9C07A",
"++	c #E9C17D",
"@+	c #EAC27F",
"#+	c #EAC281",
"$+	c #EAC381",
"%+	c #EAC382",
"&+	c #EAC280",
"*+	c #EAC27E",
"=+	c #E9C17C",
"-+	c #E9C178",
";+	c #E9BF74",
">+	c #E9BE6F",
",+	c #E8BB69",
"'+	c #E8B662",
")+	c #E8B15A",
"!+	c #E7AD53",
"~+	c #E5A94F",
"{+	c #E0A047",
"]+	c #A1612A",
"^+	c #CC8136",
"/+	c #AC662A",
"(+	c #B67935",
"_+	c #DD9840",
":+	c #E3A64B",
"<+	c #E4AA4D",
"[+	c #E5AE4F",
"}+	c #E6B251",
"|+	c #E7B654",
"1+	c #E7B859",
"2+	c #E8BB5F",
"3+	c #E8BC65",
"4+	c #E8BD69",
"5+	c #E8BD6C",
"6+	c #E8BE6F",
"7+	c #E9BF71",
"8+	c #E9BE70",
"9+	c #E8BE6E",
"0+	c #E8BB68",
"a+	c #E8B963",
"b+	c #E8B55E",
"c+	c #E7B158",
"d+	c #E7AE52",
"e+	c #E6A94F",
"f+	c #E3A64D",
"g+	c #E0A34A",
"h+	c #D38D3A",
"i+	c #975B28",
"j+	c #BB712F",
"k+	c #CA7F35",
"l+	c #C4722C",
"m+	c #905727",
"n+	c #CE8738",
"o+	c #D8943F",
"p+	c #DF9C42",
"q+	c #E1A044",
"r+	c #E1A345",
"s+	c #E3A646",
"t+	c #E4A948",
"u+	c #E4AB4A",
"v+	c #E4AD4C",
"w+	c #E5AF4F",
"x+	c #E5B051",
"y+	c #E5B152",
"z+	c #E5B153",
"A+	c #E5B054",
"B+	c #E5AF52",
"C+	c #E5AA4E",
"D+	c #E5A84B",
"E+	c #E4A548",
"F+	c #E4A246",
"G+	c #E39F44",
"H+	c #E09C42",
"I+	c #DD9A42",
"J+	c #DB9841",
"K+	c #DB933C",
"L+	c #915D2B",
"M+	c #C7742B",
"N+	c #B56C2E",
"O+	c #C87D34",
"P+	c #BE6E2B",
"Q+	c #9C6D30",
"R+	c #E49C3F",
"S+	c #E29E40",
"T+	c #E3A141",
"U+	c #E5A443",
"V+	c #E6A745",
"W+	c #E8A946",
"X+	c #E8AB48",
"Y+	c #E9AE49",
"Z+	c #EAB04A",
"`+	c #EBB14B",
" @	c #EBB34C",
".@	c #EBB44C",
"+@	c #EBB24A",
"@@	c #EBB148",
"#@	c #EAAF47",
"$@	c #E9AD46",
"%@	c #E8AA45",
"&@	c #E7A743",
"*@	c #E6A542",
"=@	c #E5A341",
"-@	c #E4A241",
";@	c #E4A041",
">@	c #B27E35",
",@	c #C07730",
"'@	c #C1702B",
")@	c #B06A2C",
"!@	c #C67B34",
"~@	c #BB6B2A",
"{@	c #BC6B2A",
"]@	c #8E6532",
"^@	c #000002",
"/@	c #0B0303",
"(@	c #190A04",
"_@	c #1E0D06",
":@	c #1F0E05",
"<@	c #200E05",
"[@	c #200F06",
"}@	c #210F06",
"|@	c #210F05",
"1@	c #220F06",
"2@	c #220E03",
"3@	c #232630",
"4@	c #252A36",
"5@	c #252B36",
"6@	c #242A36",
"7@	c #232A35",
"8@	c #222A36",
"9@	c #212936",
"0@	c #0F080A",
"a@	c #000003",
"b@	c #472F1A",
"c@	c #D18537",
"d@	c #BE6C2A",
"e@	c #AC652C",
"f@	c #C37834",
"g@	c #B7672A",
"h@	c #BA682A",
"i@	c #7D582D",
"j@	c #0B0B10",
"k@	c #643112",
"l@	c #595055",
"m@	c #675756",
"n@	c #685957",
"o@	c #6A5B57",
"p@	c #6B5C58",
"q@	c #6B5D59",
"r@	c #6C5E59",
"s@	c #6C5F59",
"t@	c #6D5F59",
"u@	c #6D5F58",
"v@	c #6D6766",
"w@	c #738C9D",
"x@	c #72899B",
"y@	c #71899B",
"z@	c #70889A",
"A@	c #6E879A",
"B@	c #6C8699",
"C@	c #688499",
"D@	c #658398",
"E@	c #636163",
"F@	c #120D0E",
"G@	c #3F2719",
"H@	c #BA6929",
"I@	c #A8622B",
"J@	c #C27733",
"K@	c #B36429",
"L@	c #B66529",
"M@	c #825B31",
"N@	c #3E271C",
"O@	c #A56B45",
"P@	c #7DB4E5",
"Q@	c #80B4E0",
"R@	c #82B6E1",
"S@	c #85B8E2",
"T@	c #87BAE4",
"U@	c #8ABCE4",
"V@	c #8CBDE4",
"W@	c #8FBEE5",
"X@	c #91BFE5",
"Y@	c #93BFE4",
"Z@	c #96BFE3",
"`@	c #96C2E4",
" #	c #9EC4E6",
".#	c #7BA2D2",
"+#	c #7CA3D3",
"@#	c #7BA3D3",
"##	c #7AA2D3",
"$#	c #78A1D3",
"%#	c #76A0D2",
"&#	c #7A9BC5",
"*#	c #512A14",
"=#	c #482F1F",
"-#	c #CB8137",
";#	c #B76629",
">#	c #A45F2A",
",#	c #BF7532",
"'#	c #B06028",
")#	c #B26228",
"!#	c #7E5A31",
"~#	c #83461F",
"{#	c #A09D9F",
"]#	c #96BEE2",
"^#	c #98C1E4",
"/#	c #99C3E5",
"(#	c #9BC5E7",
"_#	c #9DC6E7",
":#	c #9FC8E8",
"<#	c #A1C9E9",
"[#	c #A2CAE8",
"}#	c #A4CAE8",
"|#	c #A6CBE8",
"1#	c #A7CBE7",
"2#	c #A8CFEA",
"3#	c #4265AC",
"4#	c #3C61AB",
"5#	c #3D63AD",
"6#	c #3D64AE",
"7#	c #3D66AE",
"8#	c #3F66AF",
"9#	c #3E67AF",
"0#	c #3F67B0",
"a#	c #3A66B3",
"b#	c #944B1A",
"c#	c #462E1F",
"d#	c #C77C35",
"e#	c #B36328",
"f#	c #A05B29",
"g#	c #BC7231",
"h#	c #AA5D27",
"i#	c #86592F",
"j#	c #AE5E24",
"k#	c #444B73",
"l#	c #334A84",
"m#	c #354E89",
"n#	c #37518C",
"o#	c #395590",
"p#	c #3A5792",
"q#	c #3B5A95",
"r#	c #3C5C98",
"s#	c #3D5E9A",
"t#	c #3E609D",
"u#	c #3F629F",
"v#	c #4064A1",
"w#	c #4161A0",
"x#	c #3C599B",
"y#	c #3C5B9D",
"z#	c #3D5C9E",
"A#	c #3D5CA0",
"B#	c #3D5DA1",
"C#	c #3C5EA1",
"D#	c #3D5EA2",
"E#	c #3D5DA2",
"F#	c #345DAA",
"G#	c #B35F20",
"H#	c #573420",
"I#	c #BE7534",
"J#	c #B05F27",
"K#	c #9C5928",
"L#	c #B86F30",
"M#	c #A35725",
"N#	c #A85F26",
"O#	c #B16328",
"P#	c #B4692C",
"Q#	c #BE6F2D",
"R#	c #C37531",
"S#	c #C77B36",
"T#	c #CA803C",
"U#	c #CD8546",
"V#	c #CF8C51",
"W#	c #D2925B",
"X#	c #D39864",
"Y#	c #D69E6D",
"Z#	c #D7A275",
"`#	c #D8A579",
" $	c #D8A77B",
".$	c #D8A67A",
"+$	c #D7A376",
"@$	c #D59F6F",
"#$	c #D29867",
"$$	c #D0925D",
"%$	c #CD8C53",
"&$	c #CA8548",
"*$	c #C77E3C",
"=$	c #C57933",
"-$	c #C1732D",
";$	c #B66D30",
">$	c #B5692B",
",$	c #AD6327",
"'$	c #A85A26",
")$	c #985527",
"!$	c #B56D30",
"~$	c #934A1E",
"{$	c #E9B970",
"]$	c #DB9643",
"^$	c #D89848",
"/$	c #D89A4D",
"($	c #D99C52",
"_$	c #D99F56",
":$	c #DAA15B",
"<$	c #DAA25E",
"[$	c #DBA361",
"}$	c #DBA462",
"|$	c #DBA461",
"1$	c #DCA360",
"2$	c #DBA35E",
"3$	c #DBA15D",
"4$	c #DAA05A",
"5$	c #D99E57",
"6$	c #D99C54",
"7$	c #D89A50",
"8$	c #D7974D",
"9$	c #D69549",
"0$	c #D59245",
"a$	c #D39141",
"b$	c #D18D3E",
"c$	c #CF8A3B",
"d$	c #CF8838",
"e$	c #CF8534",
"f$	c #D8A562",
"g$	c #9A4E1E",
"h$	c #915226",
"i$	c #B16A2F",
"j$	c #8D471E",
"k$	c #DEA75F",
"l$	c #CB7F32",
"m$	c #D28437",
"n$	c #D48639",
"o$	c #D4873B",
"p$	c #D5883C",
"q$	c #D5893E",
"r$	c #D6893E",
"s$	c #D68A3F",
"t$	c #D6893F",
"u$	c #D5893D",
"v$	c #D5873B",
"w$	c #D48537",
"x$	c #D38435",
"y$	c #D38233",
"z$	c #D28131",
"A$	c #D2802F",
"B$	c #D17E2F",
"C$	c #CF7C2E",
"D$	c #CD7B2E",
"E$	c #CB792D",
"F$	c #C9772C",
"G$	c #C5742C",
"H$	c #BD6F2A",
"I$	c #CD9857",
"J$	c #944B1E",
"K$	c #8B4E25",
"L$	c #AD662E",
"M$	c #86431C",
"N$	c #DEA65C",
"O$	c #C97B2D",
"P$	c #D08030",
"Q$	c #D48232",
"R$	c #D48333",
"S$	c #D48335",
"T$	c #D48436",
"U$	c #D58436",
"V$	c #D48434",
"W$	c #D38131",
"X$	c #D3802F",
"Y$	c #D27F2F",
"Z$	c #D07D2E",
"`$	c #CE7B2D",
" %	c #CD7A2E",
".%	c #C9762C",
"+%	c #C7752D",
"@%	c #C3722B",
"#%	c #BA6C29",
"$%	c #CA9658",
"%%	c #8D471D",
"&%	c #854A24",
"*%	c #A8622C",
"=%	c #803F1B",
"-%	c #DCA45E",
";%	c #C6782A",
">%	c #CF7D2E",
",%	c #D38030",
"'%	c #D38130",
")%	c #D3812F",
"!%	c #D27F2E",
"~%	c #D07E2E",
"{%	c #C8762D",
"]%	c #C6742C",
"^%	c #C4722B",
"/%	c #BF6F2B",
"(%	c #B66928",
"_%	c #C89457",
":%	c #87431B",
"<%	c #7E4723",
"[%	c #A35F2B",
"}%	c #793B1A",
"|%	c #DAA35F",
"1%	c #C2742A",
"2%	c #CB7A2D",
"3%	c #CF7C2D",
"4%	c #D07C2E",
"5%	c #D17E2E",
"6%	c #D17E2D",
"7%	c #CC792B",
"8%	c #C6752C",
"9%	c #C5732C",
"0%	c #C3722C",
"a%	c #BC6D2A",
"b%	c #B36728",
"c%	c #C59255",
"d%	c #784323",
"e%	c #9D5A2A",
"f%	c #723718",
"g%	c #D7A161",
"h%	c #BD7029",
"i%	c #C7772C",
"j%	c #CB782D",
"k%	c #CB7628",
"l%	c #BB8F6D",
"m%	c #B68D6C",
"n%	c #C76E20",
"o%	c #CB7322",
"p%	c #CA7322",
"q%	c #CA7222",
"r%	c #C97122",
"s%	c #BA6D2D",
"t%	c #B79780",
"u%	c #BA7C4C",
"v%	c #C4732B",
"w%	c #C06E2B",
"x%	c #BE6D2B",
"y%	c #BA6A2A",
"z%	c #AF6427",
"A%	c #C28F53",
"B%	c #793B19",
"C%	c #723F22",
"D%	c #975628",
"E%	c #6B3217",
"F%	c #D49F62",
"G%	c #B96D29",
"H%	c #C3732C",
"I%	c #C8752D",
"J%	c #C8762C",
"K%	c #C9782D",
"L%	c #BD814F",
"M%	c #B0B0B0",
"N%	c #CBBFB5",
"O%	c #CAC8C6",
"P%	c #CACACB",
"Q%	c #CCCDCE",
"R%	c #CBCBCB",
"S%	c #C9C7C5",
"T%	c #C9C2BB",
"U%	c #C6B8AA",
"V%	c #8D9296",
"W%	c #BC6521",
"X%	c #BF6E2B",
"Y%	c #BC6C2A",
"Z%	c #BB6A2A",
"`%	c #B66729",
" &	c #AC6126",
".&	c #BF8C50",
"+&	c #733718",
"@&	c #6A3B21",
"#&	c #905227",
"$&	c #642F15",
"%&	c #D29D61",
"&&	c #B56B29",
"*&	c #C0702B",
"=&	c #C6732C",
"-&	c #BC6D2B",
";&	c #9C928C",
">&	c #A29893",
",&	c #BA6E30",
"'&	c #C97730",
")&	c #C1702A",
"!&	c #C17029",
"~&	c #C16F2A",
"{&	c #9F6A42",
"]&	c #A1A1A1",
"^&	c #987863",
"/&	c #BF6C28",
"(&	c #BD6B2A",
"_&	c #BA692A",
":&	c #B86729",
"<&	c #B36428",
"[&	c #A85D26",
"}&	c #BB894C",
"|&	c #6C3417",
"1&	c #643820",
"2&	c #894D26",
"3&	c #5A2C16",
"4&	c #D09B5D",
"5&	c #B16727",
"6&	c #BD6D2A",
"7&	c #C16F2B",
"8&	c #C2712C",
"9&	c #C2702C",
"0&	c #C3712C",
"a&	c #C06C26",
"b&	c #C06B25",
"c&	c #BF6E2A",
"d&	c #C06F2B",
"e&	c #B76321",
"f&	c #BE6B28",
"g&	c #BC6A2A",
"h&	c #BA6A29",
"i&	c #B9682A",
"j&	c #B66629",
"k&	c #B56529",
"l&	c #B06128",
"m&	c #A45B25",
"n&	c #B78646",
"o&	c #653018",
"p&	c #5B3420",
"q&	c #834A25",
"r&	c #3E2016",
"s&	c #AE6427",
"t&	c #B86A2A",
"u&	c #BD6C2A",
"v&	c #BD6C2B",
"w&	c #BE6C2B",
"x&	c #BE6D2A",
"y&	c #BF6D2A",
"z&	c #BE6E2A",
"A&	c #BF6D2B",
"B&	c #BB6A29",
"C&	c #B9692A",
"D&	c #B8682A",
"E&	c #B56429",
"F&	c #B16228",
"G&	c #AC5E27",
"H&	c #A15724",
"I&	c #B48440",
"J&	c #452317",
"K&	c #553120",
"L&	c #6E3E23",
"M&	c #3B1E16",
"N&	c #CB964E",
"O&	c #BA6B2A",
"P&	c #C0702C",
"Q&	c #C1702E",
"R&	c #C27230",
"S&	c #C27332",
"T&	c #C37433",
"U&	c #C27534",
"V&	c #C27535",
"W&	c #C27536",
"X&	c #C27537",
"Y&	c #C17436",
"Z&	c #C07336",
"`&	c #BF7234",
" *	c #BE7033",
".*	c #BD6E31",
"+*	c #BB6C2F",
"@*	c #BA6A2E",
"#*	c #B9692B",
"$*	c #AE6128",
"%*	c #A35A25",
"&*	c #B3803B",
"**	c #422218",
"=*	c #31211D",
"-*	c #9D6D35",
";*	c #84451F",
">*	c #8F4B21",
",*	c #934E22",
"'*	c #954F22",
")*	c #975123",
"!*	c #985224",
"~*	c #9A5426",
"{*	c #9A5527",
"]*	c #9B5528",
"^*	c #9D5729",
"/*	c #9D572A",
"(*	c #9E592A",
"_*	c #9E592B",
":*	c #9E582B",
"<*	c #9C5729",
"[*	c #9B5628",
"}*	c #9B5527",
"|*	c #995426",
"1*	c #985225",
"2*	c #965123",
"3*	c #955022",
"4*	c #934E21",
"5*	c #8F4B20",
"6*	c #83451F",
"7*	c #98602E",
"8*	c #915F2E",
"9*	c #7A401D",
"0*	c #84441F",
"a*	c #89461F",
"b*	c #8A4720",
"c*	c #8B4820",
"d*	c #8D4920",
"e*	c #8E4920",
"f*	c #904B21",
"g*	c #904C21",
"h*	c #914B21",
"i*	c #914C21",
"j*	c #8E4A21",
"k*	c #8E4A20",
"l*	c #8C4920",
"m*	c #8A4820",
"n*	c #88451F",
"o*	c #83431E",
"p*	c #793F1D",
"q*	c #895129",
"r*	c #865029",
"s*	c #763C1C",
"t*	c #7F401D",
"u*	c #82421E",
"v*	c #84431E",
"w*	c #86441E",
"x*	c #87451F",
"y*	c #8A471F",
"z*	c #8B4720",
"A*	c #8C4820",
"B*	c #8B471F",
"C*	c #8A461F",
"D*	c #88461F",
"E*	c #87441E",
"F*	c #85431E",
"G*	c #81411E",
"H*	c #7E3F1D",
"I*	c #753B1C",
"J*	c #7C4825",
"K*	c #633A23",
"L*	c #5C311B",
"M*	c #582F1A",
"N*	c #572F19",
"O*	c #58301A",
"P*	c #5A311A",
"Q*	c #5C321A",
"R*	c #5D331A",
"S*	c #5E331A",
"T*	c #5C331A",
"U*	c #5B321A",
"V*	c #5A301A",
"W*	c #593019",
"X*	c #572F1A",
"Y*	c #562F19",
"Z*	c #5C301A",
"`*	c #5D3721",
"          . + @ # $ % & * = - ; > - = , ' ) ! ~ { ] ^           ",
"        / ( _ : < [ } | 1 2 3 4 4 5 5 6 7 8 9 0 a b c d         ",
"      e f g h i j k l m n o p p p p o q r m s t u v w x y       ",
"    z A B C D E F G H I J J K L M N O J P Q R S T U B V W X     ",
"  Y Z ` h  .E ..+.@.#.$.%.&.*.*.*.*.*.=.-.;.>.,. .'.).B !.~.{.  ",
"  ].^./.(._.:.<.[.}.|.1.2.3.4.5.6.7.8.9.0.a.b.c.d.e.f.g.h.i.j.  ",
"k.l.m.n.o.p.q.r.s.t.u.v.w.x.y.z.A.B.C.D.E.F.G.H.I.J.K.L.M.N.O.P.",
"Q.R.S.T.U.V.W.X.Y.Z.`. +.+++@+#+$+%+&+*+=+-+;+>+,+'+)+!+~+{+* ]+",
"^+/+(+_+:+<+[+}+|+1+2+3+4+5+6+`.7+7+8+9+Z.0+a+b+c+d+e+f+g+h+i+j+",
"k+l+m+n+o+_+p+q+r+s+t+u+v+w+x+y+z+A+B+U.C+D+E+F+G+H+I+J+K+L+M+N+",
"O+P+l+Q+R+S+T+U+V+W+X+Y+Z+`+ @ @.@ @+@@@#@$@%@&@*@=@-@;@>@,@'@)@",
"!@~@{@]@^@/@(@_@_@:@<@<@[@}@|@}@1@2@3@4@5@6@6@7@8@9@0@a@b@c@d@e@",
"f@g@h@i@j@k@l@m@n@o@p@q@r@s@s@t@u@v@w@x@y@z@A@B@C@D@E@F@G@x H@I@",
"J@K@L@M@N@O@P@Q@R@S@T@U@V@W@X@Y@Z@`@ #.#+#+#@###$#%#&#*#=#-#;#>#",
",#'#)#!#~#{#]#^#/#(#_#:#<#[#}#|#1#2#3#4#5#6#7#8#9#0#a#b#c#d#e#f#",
"g#h#h#i#j#k#l#m#n#o#p#q#r#s#t#u#v#w#x#y#z#A#B#C#D#E#F#G#H#I#J#K#",
"L#M#N#O#P#Q#R#S#T#U#V#W#X#Y#Z#`# $.$+$@$#$$$%$&$*$=$-$;$>$,$'$)$",
"!$~${$]$^$/$($_$:$<$[$[$}$|$1$2$3$4$5$6$7$8$9$0$a$b$c$d$e$f$g$h$",
"i$j$k$l$m$n$o$p$q$r$s$t$r$u$p$v$n$w$x$y$z$A$B$C$D$E$F$G$H$I$J$K$",
"L$M$N$O$P$Q$R$S$T$T$T$U$T$T$V$R$Q$W$X$Y$B$Z$`$ %E$.%+%@%#%$%%%&%",
"*%=%-%;%>%Y$Y$X$,%'%'%'%'%)%X$A$!%B$~%C$`$ %E$F${%]%^%/%(%_%:%<%",
"[%}%|%1%2%3%4%>%5%5%5%5%6%~%Z$>%3%`$D$7%E$F${%8%9%0%'@a%b%c%=%d%",
"e%f%g%h%i%j%2% % % %k%l%m%n%o%p%q%r%s%t%u%]%v%0%'@w%x%y%z%A%B%C%",
"D%E%F%G%H%I%{%J%F$K%L%M%N%O%P%Q%R%S%T%U%V%W%'@X%x%Y%Z%`% &.&+&@&",
"#&$&%&&&*&^%^%G$=&]%-&;&>&,&'&)&!&~&{&]&^&/&x%(&Z%_&:&<&[&}&|&1&",
"2&3&4&5&6&7&7&'@8&9&0&a&b&9&'@7&7&c&d&e&f&g&h&i&:&j&k&l&m&n&o&p&",
"q&r&I$s&t&u&v&w&x&y&z&z&A&y&w&v&u&g&Z%B&C&D&;#L@E&e#F&G&H&I&J&K&",
"L&M&N&s&O&A&w%P&Q&R&S&T&U&V&W&W&X&Y&Z&`& *.*+*@*#*g@k&$*%*&***=*",
"    -*;*>*,*'*)*!*~*{*]*^*/*(*_*_*:*/*<*[*}*|*1*2*3*4*5*6*7*    ",
"    8*9*0*a*b*c*d*e*5*f*g*h*i*i*i*i*i*f*f*j*k*l*m*a*n*o*p*q*    ",
"    r*s*t*u*v*w*x*n*a*y*y*z*A*A*A*c*B*y*C*D*x*E*F*v*G*H*I*J*    ",
"    K*L*M*N*O*P*P*Q*R*R*R*S*S*S*S*S*R*R*T*Q*U*V*W*X*Y*X*Z*`*    "};
